<?xml version="1.0" encoding="UTF-8"?>
<svg xmlns="http://www.w3.org/2000/svg" xmlns:xlink="http://www.w3.org/1999/xlink" viewBox="0 0 714.08 859.51">
  <defs>
    <style>
      .cls-1 {
        fill: url(#linear-gradient-4);
      }

      .cls-1, .cls-2 {
        opacity: .4;
      }

      .cls-1, .cls-2, .cls-3, .cls-4 {
        mix-blend-mode: screen;
      }

      .cls-5 {
        fill: url(#linear-gradient-3);
        opacity: .3;
      }

      .cls-6 {
        fill: url(#linear-gradient-2);
      }

      .cls-2 {
        fill: url(#linear-gradient-7);
      }

      .cls-7 {
        fill: url(#linear-gradient-9);
      }

      .cls-7, .cls-8 {
        opacity: .5;
      }

      .cls-9 {
        isolation: isolate;
      }

      .cls-8 {
        fill: url(#linear-gradient-8);
      }

      .cls-3 {
        fill: url(#linear-gradient-5);
        opacity: .6;
      }

      .cls-4 {
        fill: url(#linear-gradient-6);
        opacity: .2;
      }

      .cls-10 {
        fill: url(#linear-gradient);
      }
    </style>
    <linearGradient id="linear-gradient" x1="311.95" y1="770.37" x2="402.13" y2="770.37" gradientUnits="userSpaceOnUse">
      <stop offset="0" stop-color="#7f8014"/>
      <stop offset=".3" stop-color="#5e5009"/>
      <stop offset=".7" stop-color="#3c3c17"/>
      <stop offset="1" stop-color="#003548"/>
    </linearGradient>
    <linearGradient id="linear-gradient-2" x1="346.91" y1="811.92" x2="412.35" y2="4.41" gradientUnits="userSpaceOnUse">
      <stop offset=".01" stop-color="#0a6c60"/>
      <stop offset="1" stop-color="#00872d"/>
    </linearGradient>
    <linearGradient id="linear-gradient-3" x1="128.98" y1="390.76" x2="730.64" y2="679.13" gradientUnits="userSpaceOnUse">
      <stop offset="0" stop-color="#00562e"/>
      <stop offset=".71" stop-color="#2c4984"/>
      <stop offset="1" stop-color="#005075"/>
    </linearGradient>
    <linearGradient id="linear-gradient-4" x1="230.49" y1="330.96" x2="355.9" y2="274.4" gradientUnits="userSpaceOnUse">
      <stop offset="0" stop-color="#eef65d"/>
      <stop offset=".99" stop-color="#004e40"/>
    </linearGradient>
    <linearGradient id="linear-gradient-5" x1="244.84" y1="185.93" x2="372.18" y2="96.42" xlink:href="#linear-gradient-4"/>
    <linearGradient id="linear-gradient-6" x1="171.71" y1="589.1" x2="372.77" y2="442.34" xlink:href="#linear-gradient-4"/>
    <linearGradient id="linear-gradient-7" x1="123.98" y1="380.15" x2="284.05" y2="380.15" xlink:href="#linear-gradient-4"/>
    <linearGradient id="linear-gradient-8" x1="212.8" y1="304.31" x2="161.17" y2="386.44" xlink:href="#linear-gradient-3"/>
    <linearGradient id="linear-gradient-9" x1="89.83" y1="488.54" x2="351.24" y2="798.36" xlink:href="#linear-gradient-3"/>
  </defs>
  <g class="cls-9">
    <g id="Layer_2" data-name="Layer 2">
      <g id="Layer_1-2" data-name="Layer 1">
        <g>
          <path class="cls-10" d="M323.23,688.69s-3.77,117.37-11.29,158.48c0,0,26.32,23.17,90.18,6.01,0,0-12.53-106.22-6.26-158.53,0,0-25.06-25.71-72.64-5.97Z"/>
          <g>
            <path class="cls-6" d="M711.25,711.43c-2.95,1.85-6.03,3.41-9.09,4.87-20.68-.94-40.07-15.07-56.2-27.57-9.32-7.12-18.5-14.45-26.31-23.02,18.79,12.04,40.86,18.36,62.84,17.96.75,0,.86-1.15.15-1.38-16.25-4.87-31.26-10.36-45.05-18.1,19.1-.66,39.47-3.26,54.09-15.32.71-.57.54-1.94-.48-1.94-.95.06-1.92.21-2.88.28l-.03-.02c-27.4,4.17-56.49-5.84-82.29-21.36,9.27-4.92,18.19-10.55,26.34-16.01,10.59-7.1,28.88-23.33,26.08-38.49-.43-2.15-3.08-1.61-3.61.05-1.23,3.52-3.37,6.9-6.06,10.13-13.24,7.4-29.32,7.15-44.27,6.67,13.93-3.49,27-10.18,37.92-21.59,2.14-1.31,4.23-2.81,6.29-4.52.72-.63.57-2.03-.23-2.37.17-.18.35-.34.48-.52.58-.82.2-2.6-.82-2.43-4.54.82-8.95,1.68-13.39,2.66-20.97-1.17-41.48-7.52-59.32-21.65-4.6-3.69-9.77-7.84-15.01-12.41,19.05,5.13,38.87,5.69,54.52,2.78,1.26-.21,1.78-2.68.29-3.04-9.15-2.2-18.22-4.41-27.29-6.95,14.71-1.49,28.11-7.83,36.9-22.39.66-1.17-.51-2.37-1.37-2.18-10.41,2.41-21.42,3.14-32.61,2.57-25.77-10.03-55.2-35.03-70.21-53.37-2.6-3.15-4.98-6.5-7.32-9.87,21.25-2.43,45.97-9.64,57.88-29.23,2.21-3.49.26-9.81-3.91-8.1-2.24.97-4.57,1.81-6.89,2.63-2.15.29-4.21.49-6.3.58-16.76-1.09-34.98-7.27-50.91-16.59,7.04-.22,13.96-2.23,20.31-6.29,3.08-.82,6.09-2.31,8.89-4.81.75-.58.54-2.29-.48-2.2.25-.26.51-.42.75-.66.65-.75.11-2.29-.78-2.2-7.78.82-14.92.25-21.57-1.28-7.5-3.94-14.45-9.93-20.96-16.47,17.62,2.81,35.55,2.55,48.97-4.72.78.12,1.68.34,2.48.41,2.15.29,3.2-1.95,3.14-4.18,1.05-.83,2.12-1.61,3.08-2.55,1.09-1.09.71-3.08-.75-3.23-3.58-.32-7.58-.6-11.81-.88-21.57-8.87-40.84-24.53-59.63-40.13-14.28-11.76-23.74-25.23-31.8-40.29,22.97,5.26,47.85,3.12,63.81-3.18,1.03-.42,1.15-1.66.71-2.54-.06-.08-.06-.11-.12-.22-.17-.22-.35-.35-.62-.49h-.06c-.12-.03-.18-.14-.34-.14-.17-.01-.35-.11-.54-.11-17.02-3.38-33.26-21.47-46.65-33.77-4-3.61-7.66-7.46-11.21-11.39,24.43,17.94,53.69,30.75,71.24,13.92.71-.72.8-2.43-.34-2.71-86.32-19.67-130.14-113.58-156.96-208.64-1.23-4.34-6.95-4.98-7.7.14-.29,2.17-.45,4.3-.68,6.46-2.6-1.09-6.09.55-6.92,4.2-10.72,45.85-22.08,122.76-68.44,135.2-1.02.28-.57,2.05.43,1.82,7.5-1.38,15.21-5.27,22.6-10.96-19.13,24.57-46.39,53.74-74.33,55.19-2.31.14-2.28,4.44.05,4.52,20.08.42,38.22-4.01,55.14-13.27-13.61,19.05-30.34,35.21-49.25,44.93-3.1,1.62-1.89,7.35,1.49,6.29,20.19-6.32,39.55-17.53,55.6-34.15-1.65,3.11-3.26,6.1-5.04,9.03-1.71,2.45-3.34,4.87-5.04,7.4-18.19,25.49-43.55,41.75-71.21,44.65-3.08.34-2.83,5.38.09,5.8,9.78,1.4,19.36,1.05,28.66-.82-16.44,13.05-35.84,22.74-53.19,18.51-2.17-.54-2.95,3.3-.86,4.1,18.05,7.07,34.46,5.57,50.54-.88-16.68,14.05-35.41,25.08-53.52,24.43-2.32-.03-2.57,4.27-.23,4.52,12.64,1.34,24.63.71,36.24-1.94-20.11,14.35-42.9,22.74-69.18,21.63-1.91-.09-2.95,2.17-2.83,4.23-3.11-.4-4.91,4.87-1.92,6.83,19.31,12.88,40.01,18.2,60.95,18.11-14.38,8.86-30.21,13.93-46.48,14.21-3.09.08-3.28,5.12-.39,5.81,9.67,2.23,19.27,2.71,28.66,1.66-17.39,11.59-37.46,19.6-54.4,13.85-2.15-.68-3.23,3.04-1.2,4.06,4.63,2.25,9.2,3.78,13.76,4.9-4.21,1.02-8.44,1.89-12.78,2.52-1.58.23-2.48,1.55-2.68,2.98-2.98.06-6,.09-8.92.12-4.4,0-5.1,8.03-.94,9.37,14.18,4.55,28.94,7.2,43.92,8.1-21.51,13.15-45.38,19.93-72.07,16.5-1.91-.25-3.08,1.92-3.14,3.97-3.03-.65-5.24,4.46-2.41,6.67,24.11,19.1,51.69,25.4,79.71,23.23-2.92,2.32-5.84,4.51-8.77,6.63-27.25,19.33-56.57,32.29-87.71,34.04-1.61.08-2.63,1.32-2.98,2.74-2.95-.22-5.9-.43-8.86-.65-4.38-.39-5.7,7.55-1.58,9.24,14.65,6.1,30.21,10.22,46.05,12.28-2.58.8-5.21,1.49-7.78,1.83-2.23.37-3.37,2.28-3.49,4.27-4.15-1.69-8.15-3.69-11.84-6.41-2.15-1.55-4.78,1.69-3.34,4.27,7.49,13.82,22.1,19.84,37.58,22.25-10.47,3.74-21.1,7.21-31.07,13.07-1.8,1.06-.88,4.58,1.03,3.98,15.64-5.04,31.47-7.81,46.71-14.1-7.06,8.23-14.44,16.21-22.28,23.92-23.02,22.77-57.09,55.02-86.68,56.63-2.21.14-3.49,1.97-3.83,3.97-3.94-2.06-7.75-4.41-11.3-7.46-1.94-1.69-4.86,1.32-3.65,4.01,12.21,27.42,52.42,29.08,75.01,29.26,11.5.09,26.72-1.77,41.87-5.92-11.53,8.72-24.99,14.16-37.49,19.53-2.28.97-1.74,5.44.71,4.66,5.14-1.65,10.24-3.2,15.3-4.83-22.31,15.3-47.73,23.19-72.9,24.52-.35,0-.66.12-.92.26-2.06-.91-4.15-1.66-6.12-2.64-2.14-1.05-3.52,2.78-1.78,4.35,45.54,42.58,114.81,37.41,167.31,1.89-7.46,8.24-15.45,15.52-25.23,18.19-1.25.31-1.68,1.95-1.43,3.25-8.7,2.21-17.61,4.49-26.49,7.58-3.75,1.26-3.87,9.15.41,8.9,31.72-2.01,64.1-2.28,93.92-18.34,11.39-6.21,22.34-14.19,32.63-23.43-7.1,11.27-14.85,22.08-23.1,31.71-.68.8.25,2.12.92,1.37,16.27-17.19,34.8-35.2,46.27-58.08-.95,7-2.01,14.05-3.3,20.87-3.46,18.79-5.4,41.29-12.76,59.46-3.46,6.17-6.92,12.36-11.07,17.97-.51.69-.15,2.08.72,1.74,10.35-3.84,16.64-10.41,24.51-19.81,12.89-15.64,28.4-27.18,40.93-43.47,2.48-3.11,4.92-6.57,7.34-10.22-2.95,9.64-6.6,18.67-11.3,26.37-.63,1.06.74,2.14,1.4,1.09,8.98-13.35,14.73-26.68,19.23-42.27,13.93,30.78,33.38,53.34,53.28,79.09.75.95,1.88-.35,1.29-1.42-1.55-2.52-2.88-5.23-4.4-7.87,3.1,4.29,6.21,8.47,9.35,12.73.8,1.12,2.11-.12,1.72-1.46-6.03-19.37-10.82-38.44-14.28-57.85,47.4,26.02,111.11,51.69,155.68,17.22,2.15-1.66,2.12-6.87-1.02-6.63-4.32.28-8.86.45-13.55.48-12.32-1.34-23.59-5.11-34.33-11.1,15.3,2.63,30.65,2.8,45.02-.72,14.31,8.09,30.25,13.48,45.7,17.68,18.01,4.87,35.7,6.72,54.2,6.52,14.5-.14,30.75.91,43.9-6.24,2.98-.32,5.97-.71,8.95-1.14.91-.14,1.29-1.66.22-1.83-24.79-3.52-48.99-3.24-72.25-13.05,35.18,2.26,77.97.65,99.25-25.77,1.4-1.71-.43-4.37-2.34-3.12Z"/>
            <path class="cls-5" d="M711.25,711.43c-2.95,1.85-6.03,3.41-9.09,4.87-20.68-.94-40.07-15.07-56.2-27.57-9.32-7.12-18.5-14.45-26.31-23.02,18.79,12.04,40.86,18.36,62.84,17.96.75,0,.86-1.15.15-1.38-16.25-4.87-31.26-10.36-45.05-18.1,19.1-.66,39.47-3.26,54.09-15.32.48-.37.54-1.09.23-1.52-.14-.23-.35-.41-.71-.41-.95.06-1.92.21-2.91.26-15.39,2.34-31.23.09-46.76-4.94-12.21-3.92-24.2-9.61-35.53-16.42,3.49-1.81,6.8-3.83,10.22-5.86,5.58-3.32,11.04-6.75,16.12-10.15,4.73-3.17,10.98-8.21,16.25-14.1,3.58-4.07,6.69-8.58,8.47-13.22,1.43-3.69,2.03-7.46,1.35-11.16-.43-2.15-3.08-1.61-3.61.05-1.23,3.52-3.37,6.9-6.06,10.13-13.24,7.4-29.32,7.15-44.27,6.67,9.84-2.46,19.13-6.67,27.65-12.87.25-.22.54-.38.78-.57.63-.48,1.37-.91,2-1.45-.15.05-.25.09-.39.11,1.22-.97,2.51-1.92,3.69-3.03,1.4-1.26,2.86-2.4,4.18-3.78,2.14-1.31,4.23-2.81,6.29-4.52.72-.63.57-2.03-.23-2.37.17-.18.35-.34.48-.52.58-.82.2-2.6-.82-2.43-4.54.82-8.95,1.68-13.39,2.66-15.04-.82-29.77-4.4-43.51-11.52-5.46-2.85-10.72-6.15-15.81-10.13-4.6-3.69-9.77-7.84-15.01-12.41,19.05,5.13,38.87,5.69,54.52,2.78,1.26-.21,1.78-2.68.29-3.04-9.15-2.2-18.22-4.41-27.29-6.95,11.16-1.14,21.57-5.06,29.77-13.3,2.6-2.58,4.98-5.61,7.13-9.09.66-1.17-.51-2.37-1.37-2.18-10.41,2.41-21.42,3.14-32.61,2.57-5-1.97-10.16-4.6-15.3-7.5-21.39-12.1-42.84-31.07-54.91-45.87-2.6-3.15-4.98-6.5-7.32-9.87,20.24-2.31,43.47-9.07,56-26.6.6-.92,1.37-1.68,1.88-2.63,2.21-3.49.26-9.81-3.91-8.1-2.24.97-4.57,1.81-6.89,2.63-2.15.29-4.21.49-6.3.58-16.76-1.09-34.98-7.27-50.91-16.59,1.58-.06,3.15-.22,4.71-.43,4.3-.65,8.5-2.06,12.5-4.2,1.05-.51,2.09-1.05,3.11-1.66,3.08-.82,6.09-2.31,8.89-4.81.75-.58.54-2.29-.48-2.2.25-.26.51-.42.75-.66.65-.75.11-2.29-.78-2.2-7.78.82-14.92.25-21.57-1.28-7.5-3.94-14.45-9.93-20.96-16.47.8.11,1.6.2,2.45.32,16.82,2.45,33.7,1.91,46.53-5.04.78.12,1.68.34,2.48.41,1.2.17,2-.51,2.51-1.46.42-.74.66-1.74.63-2.72,1.05-.83,2.12-1.61,3.08-2.55,1.09-1.09.71-3.08-.75-3.23-3.58-.32-7.58-.6-11.81-.88-11.93-4.87-23.13-11.9-33.95-19.81-8.8-6.38-17.3-13.35-25.68-20.33-14.28-11.76-23.74-25.23-31.8-40.29,19.87,4.58,41.16,3.55,56.85-.88,2.46-.69,4.84-1.46,6.97-2.31,1.03-.42,1.15-1.66.58-2.75-.17-.22-.35-.35-.68-.49-.12-.03-.18-.14-.34-.14-.17-.01-.35-.11-.54-.11-17.02-3.38-33.26-21.47-46.65-33.77-4-3.61-7.66-7.46-11.21-11.39,24.43,17.94,53.69,30.75,71.24,13.92.71-.72.8-2.43-.34-2.71-2.12-.46-4.06-1.2-6.09-1.75-.23.12-.42.29-.65.43-2.34-.09-4.63-.31-6.89-.77-14.5-2.92-29.48-10.13-42.58-17.99-27.83-16.65-44.11-44.48-63.57-72.67-1.08-1.57-3.4.17-2.83,2.08,5.69,16.76,13.99,32.01,23.83,45.56,4.71,11.58,10.16,21.9,16.73,30.69-1.61-1.18-3.21-2.4-4.77-3.67-9.13-7.64-17.81-17.84-27.71-23.6-1.89-1.08-3.49,1.65-2.12,3.52,3.55,5.06,7.27,9.79,11.15,14.38,15.16,19.41,31.12,36.06,49.82,48.02-4.57-.45-9.21-1.12-14.08-2.26-26.48-6.24-48.73-18.7-66.75-43.79-1.14-1.49-3.26.59-2.31,2.25,4.66,7.97,9.38,15.67,14.65,22.82,20.37,39.04,46.53,73.24,77.24,95.53-24.49-14.42-46.01-32.24-66.67-54.99-1.8-1.94-3.94,1.02-2.54,3.23,6.53,9.78,12.35,18.9,19,27.2,19.11,30,42.65,59.92,70.04,76.59-19.73-4.64-44.58-21.94-59.12-38.69-1.14-1.32-3.17.55-2.15,2.15,4.03,6.43,8.5,12.29,13.33,17.54,5.11,7.56,9.67,14.99,16.65,21.59,9.18,8.67,19.45,15.65,29.97,21.5-36.18-9.36-72.99-38.52-97.99-72.02-2.1-2.75-4.98.91-3.9,3.83,2.81,7.64,7.26,14.73,12.33,21.25,4.64,9.32,8.89,18.7,13.42,27.86-.37.2-.69.72-.43,1.28,2.92,5.69,5.9,11.33,9.07,16.78-8.8-9.75-17.11-20.11-25.36-30.43-2.03-4.35-3.9-8.72-5.43-13.24-.32-1.15-2.06-1.09-1.84.35,2.17,19.25,9.12,39.81,19.65,54.45,1.71,2.41,4.98-.25,4.27-3.21-1.74-6.77-4.4-13.13-7.35-19.34,8.27,12.81,16.72,24.8,27.51,35.89,4.86,5,10.26,9.47,15.87,13.58,7.52,9.16,15.27,18.05,23.42,26.86,14.22,15.52,32.04,25.06,49.5,33.87,16.88,8.5,35.13,15.28,53.69,18.74-30.34,3.11-63.61,3.57-89.58-15.79-1.38-1.06-3.43,1.18-2.31,2.94,3.74,5.95,8,10.22,12.65,13.64,19.71,21.76,44.78,38.63,69.44,48.53,7.16,2.86,14.75,5.75,22.46,8.36-36.84-5.3-76.33-6.26-106.5-32.57-2.23-2.41-4.29-4.87-6.09-7.44-1.03-2.09-2.01-4.12-2.86-6.26-.35-.77-1.02-1.2-1.72-1.52-1.46-2.98-2.51-6.04-3.14-9.1-.35-1.95-3.11-1.38-3.11.48.06,9.44,2.25,17.91,6.03,25.48,11.7,35.21,51.79,59.97,81.43,73.24,8.95,4,18.24,6.7,27.75,8.5-27.42,2.21-54.77-.03-81-7.92-7.49-2.66-14.79-5.67-21.94-9.07,5.24,13.36,12.67,25.94,20.25,37.98,9.63,15.3,17.54,36.35,32.46,46.47,5.9,3.98-31.15-7.98-37.69-12.01-17.68-10.81-35.32-22.7-49.1-38.87-11.66-13.7-21-28.82-28.82-44.97-.09.81-.22,1.66-.29,2.46,1.05,7.8,2.26,15.76,4.2,23.3-1.85-1.85-3.63-3.69-5.43-5.54-6.09,36.49,2.15,65.29,12.44,71.52,2.6,1.58-18.82-6.93-23.33-11.07-15.71-14.53-26.15-36.24-33.7-56.58-1.71-4.6-3.29-9.27-4.78-13.95-.77-2.49-4.83-11.39-3.97-13.7-.51,1.31-.98,2.58-1.46,3.9-2.35,7.07-1.81,16.38-2.14,23.74-.03.78-.03,1.66-.09,2.46-7.61,28.97,3.15,64.5,17.21,88.57,5.26,8.96,12.79,18.22,21.63,26.54-2.87-1.28-5.73-2.6-8.63-3.77-.63-.29-1.25-.55-1.91-.82-1.91-1.74-3.84-3.46-5.64-5.35-18.57-19.28-32.27-45.16-40.3-71.78-1.81-14.12-3.6-28.29-5.9-42.36-.09-.18-.15-.26-.23-.38-.28-1.98-.51-3.97-1.02-5.81-.22-.98-1.58-.95-1.8.02-9.3,42.25-19.11,82.57-37.79,121.52-2.65,5.53-5.49,10.95-8.38,16.33.35-1.68.83-3.38,1.23-5.03,3.81-16.7,4.95-34.32,6.29-51.39,1.31-16.84,3.34-33.52-3.14-49.34-.17-.46-.57-.71-1.02-.83.09-2.12.22-4.18.09-6.37-.06-1.14-1.69-1.41-1.97-.23-10.1,43.61-50.88,78.2-82.63,104.77-2.54,2.09-5.15,4.09-7.75,6.06,24.91-29.54,47.37-72.39,46.36-110.6,0-.46-.34-.75-.69-.85-.15-.83-1.31-1.09-1.69-.29-11.42,23.79-31.18,38.89-51.97,52.82-20.02,13.42-39.52,27-60.46,38.72-14.05,7.87-31.69,14.58-50.24,18.5,22.82-11.69,43.85-29.78,61.41-48.85,12.35-13.41,27.6-31.14,33.44-49.9,3.17-4.58,5.61-9.81,6.8-16.05.22-.95-.89-1.69-1.58-.95-24.72,27.97-60.55,37.62-94.82,46.62-18.91,4.98-39.55,5.14-58.68,1.42-.09,0-.15-.06-.23-.06-1.35.17-2.66.38-3.97.45-2.21.14-3.49,1.97-3.83,3.97-3.94-2.06-7.75-4.41-11.3-7.46-1.94-1.69-4.86,1.32-3.65,4.01,1.23,2.71,2.75,5.1,4.47,7.37,15.64,20.3,50.16,21.76,70.53,21.9,11.5.09,26.72-1.77,41.87-5.92-11.53,8.72-24.99,14.16-37.49,19.53-2.28.97-1.74,5.44.71,4.66,4.15-1.32,8.27-2.6,12.35-3.89-2.48,1.66-4.95,3.43-7.43,5.06-1.63,1.08-3.37,2.09-5.06,3.15-15.01,8.78-33.44,15.81-51.85,17.77-5.17-.63-10.18-1.69-15.07-3.05-.17.94-.12,1.98.63,2.61,6.09,5.69,12.56,10.46,19.42,14.47,41.55,24.46,95.12,19,139.12-7.09-4.54,4.23-9.43,8.18-14.53,11.92-.63.23-1.22.58-1.94.78-.66.18-1.11.8-1.31,1.51-1.35.91-2.6,1.86-3.94,2.77-5.1,3.35-10.24,6.6-15.55,9.55-3.26,1.14-6.53,2.11-9.81,3.09.32,1.6,1.34,2.91,3.09,2.81,10.44-.68,20.97-1.18,31.44-2.09,21.33-1.85,42.49-5.47,62.47-16.25,11.39-6.21,22.34-14.19,32.63-23.43-7.1,11.27-14.85,22.08-23.1,31.71-.68.8.25,2.12.92,1.37,16.27-17.19,34.8-35.2,46.27-58.08-.2,1.52-.51,3.01-.71,4.55-.82,5.47-1.61,10.96-2.6,16.31-3.46,18.79-5.4,41.29-12.76,59.46-3.46,6.17-6.92,12.36-11.07,17.97-.51.69-.15,2.08.72,1.74,2.41-.85,4.55-1.95,6.58-3.17,6.72-3.94,11.9-9.43,17.93-16.64,12.89-15.64,28.4-27.18,40.93-43.47,2.48-3.11,4.92-6.57,7.34-10.22-2.95,9.64-6.6,18.67-11.3,26.37-.63,1.06.74,2.14,1.4,1.09,8.98-13.35,14.73-26.68,19.23-42.27,2.48,5.5,5.23,10.69,8.09,15.71,7.4,13.32,15.78,25.29,24.72,37.06,6.63,8.7,13.55,17.31,20.47,26.32.75.95,1.88-.35,1.29-1.42-1.55-2.52-2.88-5.23-4.4-7.87,3.1,4.29,6.21,8.47,9.35,12.73.8,1.12,2.11-.12,1.72-1.46-6.03-19.37-10.82-38.44-14.28-57.85,6.89,3.78,14.16,7.55,21.62,11.13,11.85,8.76,43.32,18.4,41.41,16.21,27.45,7.98,55.31,9.83,79.33-1.94,4.58-2.26,9.06-4.86,13.33-8.18,2.15-1.66,2.12-6.87-1.02-6.63-4.32.28-8.86.45-13.55.48-3.37-.37-6.63-.95-9.84-1.66-8.56-1.95-16.68-5.14-24.49-9.44,7.52,1.31,15.04,1.98,22.4,1.94,12.12,2.09,24.11,3.45,36.15,3.98.31.14.57.23.82.35,6.29,2.69,12.7,5.06,19.17,7.09-.51,1.17-1.43,2.17-2.92,2.63-.6.22-1.25.31-1.91.48,6.41.34,12.82.63,19.2,1.01,6.21,1.58,12.35,2.75,18.5,3.67,11.07,1.62,22.11,2.45,33.5,2.32,7.96-.11,16.44.15,24.66-.74,6.75-.78,13.33-2.26,19.24-5.5,2.98-.32,5.97-.71,8.95-1.14.91-.14,1.29-1.66.22-1.83-24.79-3.52-48.99-3.24-72.25-13.05.15,0,.34.02.51.02,21.26,1.34,45.22,1.23,65.53-4.92,8.98-2.75,17.31-6.63,24.37-12.15,3.26-2.54,6.18-5.44,8.84-8.72,1.4-1.71-.43-4.37-2.34-3.12Z"/>
            <path class="cls-1" d="M183.36,292.51c26.05,10.21,48.65,2.86,71.87-12.18-10.89,13.93-22.8,26.31-35.89,36.15-6.41,4.83-13.1,9.06-20.11,12.55,4-.63,7.83-1.35,11.43-2.11,11.49-2.31,23-5.89,33.83-11.29,10.66-5.27,32.87-22.88,42.24-31.38-6.64,23.37-29.41,55.45-27.32,53.88,24.31-18.47,32.27-30.15,45.1-52.02.4,31.14-3.94,62.44-1.21,93.66.26,3.05-1.71,9.7.21,7.49,8.26-9.56,41.33-89.18,46.18-98.15,6.29,22.68,26.48,64.27,27.05,62.38,5.07-17.68,2.34-37.1,1.26-55.71,13.72,14.21,51.57,32.14,48.74,28.97-24.88-28.55-48.74-66.64-52.29-109.88-.28-3.52-8.95,39.09-11.33,60.06-12.18-21.05-15.87-76.82-17.28-74.02-12.92,25.96-19.93,55.29-31.23,82.19-3.49-21.13,4.92-71.33,2.82-69.19-7.01,7.23-12.9,15.62-19.19,23.8-5.4,7.03-11.75,12.61-18.34,17.82,7.87-13.78,20.47-46.71,19.39-44.96-10.38,17.15-27.29,28.71-45.25,36.07-4.09,3.03-8.29,5.69-12.64,8.03-10.3,5.44-21.31,9.06-32.71,10.24-3.08.34-2.83,5.38.09,5.8,9.78,1.4,19.36,1.05,28.66-.82-16.44,13.05-35.84,22.74-53.19,18.51-2.17-.54-2.95,3.3-.86,4.1Z"/>
            <path class="cls-3" d="M226.96,200.03c.63,0,1.23-.08,1.86-.08.92-.34,1.88-.62,2.77-1.05.42.2.95.29,1.52.22,27.89-3.11,53.34-23.74,77.37-41.38-4.47,7.04-10.61,12.95-15.65,18.59-2.06,2.28-.38,7.55,2.48,7.07,17.74-3.04,34.49-17.19,47.44-33.23-1.45,8.32-3.65,16.44-4.31,24.99-.26,3.55,3.87,5.3,5.64,2.77,7.81-11.12,11.87-24.57,17.42-37.33,5.24,13.84,8.89,28.08,16.64,40.38,1.68,2.57,4.89,1.71,5.01-1.8.45-10.61-.38-21.07-.89-31.66,10.38,6.15,19.67,15.42,27.42,25.77,2.26,3.08,5.87-1.57,3.61-4.61-16.18-21.51-23.33-49.76-35.15-74.81-.98-2.18-4.1-1.81-4.5.83-.98,6.89-1.85,13.58-3.66,20.08-5.14-10.62-6.57-21.6-6.72-34.46-.09-2.92-3.01-4.41-4.64-2.29-6.41,8.47-11.19,18.51-17.19,27.34,2.54-20.57,7.61-40.52,9.76-61.17,1.49-14.32,2.38-28.89,2.41-43.39-.63.57-1.14,1.49-1.35,2.8-.29,2.17-.45,4.3-.68,6.46-1.11-.46-2.31-.32-3.46.12-1.58.6-3.01,1.95-3.46,4.07-10.72,45.85-22.08,122.76-68.44,135.2-1.02.28-.57,2.05.43,1.82,7.5-1.38,15.21-5.27,22.6-10.96-10.32,13.27-23.03,27.85-36.93,38.7-11.72,9.16-24.31,15.68-36.98,16.47-.12,0-.28.02-.41.02-.57.05-1.02.38-1.32.83-.8,1.28-.35,3.65,1.37,3.69Z"/>
            <path class="cls-4" d="M515.54,472.93c-11.19-3.58-21.96-6.4-32.27-10-10.62-11.32-22.66-19.88-33.32-31.15-11.13-11.76-17.67-28.78-28.91-39.7-2.03-2-5.24-.78-5.21,2.78.05,7.23.11,7.24,1.15,14.32.92,6.53,4.57,26.74-5.01,10.67-4.32-7.26-6.86-15.59-12.35-21.79-1.28-1.45-2.98-.94-3.97.74-5.81,10.32-2.6,21.9-1.49,33.41-6.5-12.76-9.18-27.8-16.28-40.35-1.08-1.92-3.31-2.05-4.29.05-7.04,14.67-6.24,31.72-5.8,48.34-4.29-15.11-6.86-30.81-10.79-46.25-.63-2.48-3.31-2.88-4.38-.61-8.92,19.56-12.02,41.73-18.5,62.46-1.08-22.68.92-45.14,2.06-67.93.12-2.58-2.98-4.21-4.27-2.08-19.33,30.72-35.13,64.21-48.23,99.5,2-29.43,6.33-58.48,12.53-87.01.66-2.95-2.45-5.04-4.09-2.89-13.65,17.73-26.12,35.92-42.09,50.62-12.38,11.38-25.14,22.11-37.86,32.95,7.26-10.5,15.04-20.2,21.1-32.29,9.66-19.22,22.31-37.12,29.95-57.72.65-1.74-.88-4.26-2.37-2.85-27.74,26.42-51.09,54.69-112.09,87.75,7.75-1.01,16.35-5.73,23.9-8.47,5.49-2,19.59-4.8,23.23-9.7-6.44,8.8-13.16,17.36-20.37,25.79-17.6,20.42-42.3,47.99-66.96,59.15-5.07,2.31-10.09,3.95-15.1,4.66-.32.06-.63.2-.89.32,32.37,10.81,70.87-1.08,99.45-17.73,13.24-7.73,25.89-17.22,37.41-28.42,4.35-4.24,8.52-8.8,12.64-13.44,2.54-2.75,4.92-5.72,7.13-8.96l1.6,7.4c-1.18,4.84-2.77,9.55-4.61,14.02-5.87,15.42-12.44,30.26-20.88,43.76-9.87,15.85-22.56,28.57-32.81,44.02-2.06,3.05,54.49-27.09,79.82-42.82,19.6-12.12,36.69-31.11,48.14-54.32-3.66,20.85-12.55,40.27-15.93,61.35-.52,3.14,2.63,5.77,4.54,3.14,10.05-13.61,16.38-29.91,23.39-46.01,6.72-15.36,12.69-34.64,22.37-47.8,6.41,22.19,7.61,48.65,22.34,65.16,1.46,1.69,4.12,1,4.63-1.65,2.54-14.49-3.64-39.69,3.11-53.16,5.27,15.22,12.25,31.41,25.55,36.49,1.35.51,3.23-.71,3.43-2.52,1.58-13.92-3.78-25.59-7.03-38.3,5.01,6.58,10.29,12.72,16.55,17.71,1.8,1.37,3.26-.98,3.04-2.95-.92-7.61-3.04-14.15-5.46-21.16-4.77-13.85-2.83-10.19,4.78-2.37,9.78,10.1,18.67,18.17,31.61,20.11.83.11,1.94-.97,1.25-2.14-5.4-8.83-10.7-17.22-14.67-26.91,20.85,18.45,45.28,30.54,71.3,27.88,1.37-.14,1.72-2.66.29-3.11Z"/>
            <path class="cls-2" d="M282.21,337.16c-2.41,2.26-4.83,4.44-7.27,6.67-6.44,5.18-13.16,9.63-19.93,13.93,7.94-5.72,15.75-11.52,23.07-19.01.26-.28-.06-.78-.34-.55-10.98,9.58-23.05,15.88-35.1,23.02-12.72,7.46-23.13,18.71-35.06,27.88-12.73,9.81-26.78,16.28-41.19,21.13-6.7,2.23-13.96,3.26-20.97,5-6.86,1.14-13.78,1.89-20.82,2.18-.71.02-.83,1.26-.17,1.45,2.45.72,4.95,1.23,7.43,1.74-.66.97,0,2.61,1.05,2.65,6.83.46,13.81.18,20.73-.65,49.16-1.15,100.25-37.76,130.14-82.97.85-1.31-.35-3.61-1.55-2.46Z"/>
            <path class="cls-8" d="M269.06,308.53c-4.75,3.66-9.2,7.46-13.45,11.26-16.47,10.04-34.13,15.68-52.14,20.22-26.68,6.72-52.6,3.41-79.46,4.26-.63.03-.88,1.08-.31,1.45,7.2,5.06,14.82,8.12,22.59,10,40.84,25.92,106.46,11.93,123.42-46.57.15-.46-.35-.83-.65-.6Z"/>
            <path class="cls-7" d="M111.35,577.92c-2.86.98-5.72,2.01-8.66,3.09,8.66,1.08,17.13,1.11,24.29.23.29,0,.52-.05.8-.09-4.77,5.53-9.73,10.9-14.79,16.18-2.37,2.52-4.78,5.04-7.26,7.47-3.31,3.31-6.86,6.75-10.55,10.32,36.35-10.78,68.9-30.49,97.33-56.25,12.98-8.09,23.86-18.65,30.06-32.6.21-.51-.29-1.28-.83-.83-22.28,18.28-48.77,30.67-75.74,38.7-27.52,8.24-50.53,4.84-72.61-10.5-.09.68-.03,1.4.37,2.03,7.49,13.82,22.1,19.84,37.58,22.25Z"/>
          </g>
        </g>
      </g>
    </g>
  </g>
</svg>